<svg xmlns="http://www.w3.org/2000/svg" width="495" height="195" viewBox="0 0 495 195">
<rect width="495" height="195" rx="6" fill="#161b22" stroke="#30363d" stroke-width="1"/>
<text x="20" y="35" font-family="-apple-system, BlinkMacSystemFont, 'Segoe UI', sans-serif" font-size="15" font-weight="600" fill="#e6edf3" text-anchor="start">Activity Radar</text>
<polygon points="150.00,90.00 167.12,102.44 160.58,122.56 139.42,122.56 132.88,102.44" fill="none" stroke="#484f58" stroke-width="0.8" opacity="0.5"/>
<polygon points="150.00,72.00 184.24,96.88 171.16,137.12 128.84,137.12 115.76,96.88" fill="none" stroke="#484f58" stroke-width="0.8" opacity="0.5"/>
<polygon points="150.00,54.00 201.36,91.31 181.74,151.69 118.26,151.69 98.64,91.31" fill="none" stroke="#484f58" stroke-width="0.8" opacity="0.5"/>
<polygon points="150.00,36.00 218.48,85.75 192.32,166.25 107.68,166.25 81.52,85.75" fill="none" stroke="#484f58" stroke-width="0.8" opacity="0.5"/>
<line x1="150.0" y1="108.0" x2="150.0" y2="36.0" stroke="#484f58" stroke-width="0.8" opacity="0.5"/>
<line x1="150.0" y1="108.0" x2="218.47606917325106" y2="85.75077640500379" stroke="#484f58" stroke-width="0.8" opacity="0.5"/>
<line x1="150.0" y1="108.0" x2="192.32053816505805" y2="166.2492235949962" stroke="#484f58" stroke-width="0.8" opacity="0.5"/>
<line x1="150.0" y1="108.0" x2="107.67946183494195" y2="166.2492235949962" stroke="#484f58" stroke-width="0.8" opacity="0.5"/>
<line x1="150.0" y1="108.0" x2="81.52393082674894" y2="85.75077640500379" stroke="#484f58" stroke-width="0.8" opacity="0.5"/>
<polygon points="150.00,68.89 179.79,98.32 159.10,120.52 141.11,120.23 133.57,102.66" fill="#58a6ff33" stroke="#58a6ff" stroke-width="2.0"/>
<circle cx="150.0" cy="68.8896" r="3.5" fill="#58a6ff"/>
<circle cx="179.78709009036422" cy="98.32158773617665" r="3.5" fill="#58a6ff"/>
<circle cx="159.09891570548749" cy="120.52358307292418" r="3.5" fill="#58a6ff"/>
<circle cx="141.1126869853378" cy="120.2323369549492" r="3.5" fill="#58a6ff"/>
<circle cx="133.56574339841976" cy="102.66018633720091" r="3.5" fill="#58a6ff"/>
<text x="150.0" y="10.0" font-family="-apple-system, BlinkMacSystemFont, 'Segoe UI', sans-serif" font-size="9" font-weight="normal" fill="#8b949e" text-anchor="middle">Commits</text>
<text x="150.0" y="21.0" font-family="-apple-system, BlinkMacSystemFont, 'Segoe UI', sans-serif" font-size="9" font-weight="600" fill="#58a6ff" text-anchor="middle">5.4k</text>
<text x="243.69297343397352" y="84.80650449500463" font-family="-apple-system, BlinkMacSystemFont, 'Segoe UI', sans-serif" font-size="9" font-weight="normal" fill="#8b949e" text-anchor="start">PRs</text>
<text x="243.69297343397352" y="95.80650449500463" font-family="-apple-system, BlinkMacSystemFont, 'Segoe UI', sans-serif" font-size="9" font-weight="600" fill="#58a6ff" text-anchor="start">87</text>
<text x="207.72510220173763" y="193.19349550499538" font-family="-apple-system, BlinkMacSystemFont, 'Segoe UI', sans-serif" font-size="9" font-weight="normal" fill="#8b949e" text-anchor="start">Reviews</text>
<text x="207.72510220173763" y="204.19349550499538" font-family="-apple-system, BlinkMacSystemFont, 'Segoe UI', sans-serif" font-size="9" font-weight="600" fill="#58a6ff" text-anchor="start">43</text>
<text x="92.27489779826237" y="193.19349550499538" font-family="-apple-system, BlinkMacSystemFont, 'Segoe UI', sans-serif" font-size="9" font-weight="normal" fill="#8b949e" text-anchor="end">Issues</text>
<text x="92.27489779826237" y="204.19349550499538" font-family="-apple-system, BlinkMacSystemFont, 'Segoe UI', sans-serif" font-size="9" font-weight="600" fill="#58a6ff" text-anchor="end">21</text>
<text x="56.30702656602648" y="84.80650449500465" font-family="-apple-system, BlinkMacSystemFont, 'Segoe UI', sans-serif" font-size="9" font-weight="normal" fill="#8b949e" text-anchor="end">Repos</text>
<text x="56.30702656602648" y="95.80650449500465" font-family="-apple-system, BlinkMacSystemFont, 'Segoe UI', sans-serif" font-size="9" font-weight="600" fill="#58a6ff" text-anchor="end">12</text>
<rect x="285" y="50" width="190" height="22" rx="3" fill="#21262d"/>
<text x="295" y="64" font-family="-apple-system, BlinkMacSystemFont, 'Segoe UI', sans-serif" font-size="10" font-weight="normal" fill="#8b949e" text-anchor="start">Commits</text>
<text x="465" y="64" font-family="-apple-system, BlinkMacSystemFont, 'Segoe UI', sans-serif" font-size="11" font-weight="700" fill="#58a6ff" text-anchor="end">5.4k</text>
<rect x="285" y="74" width="190" height="22" rx="3" fill="#21262d"/>
<text x="295" y="88" font-family="-apple-system, BlinkMacSystemFont, 'Segoe UI', sans-serif" font-size="10" font-weight="normal" fill="#8b949e" text-anchor="start">PRs</text>
<text x="465" y="88" font-family="-apple-system, BlinkMacSystemFont, 'Segoe UI', sans-serif" font-size="11" font-weight="700" fill="#3fb950" text-anchor="end">87</text>
<rect x="285" y="98" width="190" height="22" rx="3" fill="#21262d"/>
<text x="295" y="112" font-family="-apple-system, BlinkMacSystemFont, 'Segoe UI', sans-serif" font-size="10" font-weight="normal" fill="#8b949e" text-anchor="start">Reviews</text>
<text x="465" y="112" font-family="-apple-system, BlinkMacSystemFont, 'Segoe UI', sans-serif" font-size="11" font-weight="700" fill="#a371f7" text-anchor="end">43</text>
<rect x="285" y="122" width="190" height="22" rx="3" fill="#21262d"/>
<text x="295" y="136" font-family="-apple-system, BlinkMacSystemFont, 'Segoe UI', sans-serif" font-size="10" font-weight="normal" fill="#8b949e" text-anchor="start">Issues</text>
<text x="465" y="136" font-family="-apple-system, BlinkMacSystemFont, 'Segoe UI', sans-serif" font-size="11" font-weight="700" fill="#f78166" text-anchor="end">21</text>
<rect x="285" y="146" width="190" height="22" rx="3" fill="#21262d"/>
<text x="295" y="160" font-family="-apple-system, BlinkMacSystemFont, 'Segoe UI', sans-serif" font-size="10" font-weight="normal" fill="#8b949e" text-anchor="start">Repos</text>
<text x="465" y="160" font-family="-apple-system, BlinkMacSystemFont, 'Segoe UI', sans-serif" font-size="11" font-weight="700" fill="#79c0ff" text-anchor="end">12</text>
</svg>
